<svg width="129" height="19" viewBox="0 0 129 19" fill="none" xmlns="http://www.w3.org/2000/svg">
<path d="M0.5 18L11.55 0.374999H15.2L20.625 18H16.225L15.3 14.425H7.375L5.275 18H0.5ZM12.825 5.175L9.45 10.9H14.375L12.875 5.175H12.825ZM25.7924 18.275C24.909 18.275 24.159 18.0917 23.5424 17.725C22.9257 17.3583 22.484 16.7833 22.2174 16C21.9507 15.2167 21.9174 14.2083 22.1174 12.975L23.2674 5.7H27.7174L26.5924 12.9C26.3757 14.2167 26.784 14.875 27.8174 14.875C28.4674 14.875 29.009 14.6417 29.4424 14.175C29.8757 13.7083 30.1591 13.0583 30.2924 12.225L31.3174 5.7H35.7674L33.8174 18H29.4674L29.7424 16.25C29.309 16.9167 28.7507 17.425 28.0674 17.775C27.384 18.1083 26.6257 18.275 25.7924 18.275ZM43.132 18.275C41.8654 18.275 40.832 18.05 40.032 17.6C39.232 17.15 38.6737 16.525 38.357 15.725C38.0404 14.925 37.9654 14.0083 38.132 12.975L38.782 8.975H36.482L37.007 5.7H39.307L39.857 2.125H44.307L43.757 5.7H47.307L46.782 8.975H43.232L42.607 12.8C42.507 13.4833 42.607 13.975 42.907 14.275C43.2237 14.5583 43.682 14.7 44.282 14.7C44.682 14.7 45.1237 14.625 45.607 14.475L45.732 17.775C45.382 17.9417 44.9737 18.0667 44.507 18.15C44.0404 18.2333 43.582 18.275 43.132 18.275ZM53.6545 18.275C51.6378 18.275 50.0795 17.75 48.9795 16.7C47.8795 15.65 47.3295 14.2583 47.3295 12.525C47.3295 11.3417 47.5295 10.3083 47.9295 9.425C48.3462 8.525 48.8962 7.78333 49.5795 7.2C50.2795 6.6 51.0628 6.15833 51.9295 5.875C52.7962 5.575 53.6878 5.425 54.6045 5.425C56.6045 5.425 58.1545 5.95 59.2545 7C60.3712 8.05 60.9295 9.43333 60.9295 11.15C60.9295 12.35 60.7212 13.4 60.3045 14.3C59.9045 15.1833 59.3545 15.925 58.6545 16.525C57.9712 17.1083 57.1962 17.55 56.3295 17.85C55.4628 18.1333 54.5712 18.275 53.6545 18.275ZM53.7295 15C54.5795 15 55.2462 14.625 55.7295 13.875C56.2128 13.125 56.4545 12.175 56.4545 11.025C56.4545 10.275 56.2795 9.7 55.9295 9.3C55.5962 8.9 55.1212 8.7 54.5045 8.7C53.6712 8.7 53.0128 9.075 52.5295 9.825C52.0462 10.5583 51.8045 11.5083 51.8045 12.675C51.8045 13.425 51.9712 14 52.3045 14.4C52.6545 14.8 53.1295 15 53.7295 15ZM66.4186 18L68.6186 4.125H63.0186L63.6186 0.374999H79.4186L78.8186 4.125H73.2186L71.0186 18H66.4186ZM76.0799 18L78.0299 5.7H82.3549L82.0049 7.85C82.3882 7.13333 82.9132 6.56667 83.5799 6.15C84.2632 5.73333 85.0632 5.49167 85.9799 5.425L87.1799 5.35L86.9799 9.1L84.2049 9.375C83.3216 9.45833 82.6882 9.70833 82.3049 10.125C81.9215 10.5417 81.6632 11.1917 81.5299 12.075L80.6049 18H76.0799ZM91.0977 18.275C90.2977 18.275 89.581 18.0917 88.9477 17.725C88.3143 17.3583 87.806 16.8833 87.4227 16.3C87.056 15.7 86.8727 15.0583 86.8727 14.375C86.8727 13.075 87.431 12.1333 88.5477 11.55C89.6643 10.95 91.3977 10.65 93.7477 10.65H95.4477L95.4727 10.425C95.5727 9.875 95.4477 9.44167 95.0977 9.125C94.7643 8.80833 94.2143 8.65 93.4477 8.65C91.981 8.65 90.5477 9.05 89.1477 9.85L88.3227 6.9C88.9727 6.46667 89.8227 6.11667 90.8727 5.85C91.9393 5.56667 93.006 5.425 94.0727 5.425C95.5893 5.425 96.7727 5.7 97.6227 6.25C98.4727 6.8 99.0393 7.54167 99.3227 8.475C99.6227 9.39167 99.681 10.3917 99.4977 11.475L98.4727 18H94.3477L94.6227 16.225C94.2227 16.9583 93.7143 17.4833 93.0977 17.8C92.4977 18.1167 91.831 18.275 91.0977 18.275ZM92.6477 15.375C93.2977 15.375 93.831 15.1833 94.2477 14.8C94.6643 14.4167 94.9227 13.9167 95.0227 13.3L95.0977 12.75H93.7477C92.8143 12.75 92.1393 12.8583 91.7227 13.075C91.3227 13.275 91.1227 13.6083 91.1227 14.075C91.1227 14.4917 91.2643 14.8167 91.5477 15.05C91.831 15.2667 92.1977 15.375 92.6477 15.375ZM107.807 18.275C105.69 18.275 104.09 17.75 103.007 16.7C101.923 15.65 101.382 14.2583 101.382 12.525C101.382 11.2917 101.648 10.1333 102.182 9.05C102.732 7.96667 103.557 7.09167 104.657 6.425C105.757 5.75833 107.14 5.425 108.807 5.425C109.64 5.425 110.44 5.53333 111.207 5.75C111.99 5.95 112.64 6.24167 113.157 6.625L111.882 9.675C111.565 9.40833 111.157 9.19167 110.657 9.025C110.157 8.85833 109.665 8.775 109.182 8.775C108.382 8.775 107.74 8.95833 107.257 9.325C106.79 9.675 106.448 10.1333 106.232 10.7C106.032 11.2667 105.932 11.85 105.932 12.45C105.932 13.1833 106.132 13.7833 106.532 14.25C106.932 14.7 107.598 14.925 108.532 14.925C108.932 14.925 109.365 14.85 109.832 14.7C110.315 14.55 110.748 14.3333 111.132 14.05L112.032 17.125C111.548 17.5083 110.907 17.8 110.107 18C109.307 18.1833 108.54 18.275 107.807 18.275ZM113.141 18L115.916 0.374999H120.366L118.741 10.65H118.791L123.541 5.7H128.716L122.991 11.775L127.066 18H122.016L118.466 12.65H118.416L117.591 18H113.141Z" fill="#E60000"/>
</svg>
